<?xml version="1.0" encoding="UTF-8"?>
<svg xmlns="http://www.w3.org/2000/svg" width="1000" height="957" viewBox="0 0 1000 957" role="img" aria-labelledby="title desc">
  <title id="title">Project growth for SMNETSTUDIO/MCSP</title>
  <desc id="desc">Repository growth dashboard showing stars, forks, release downloads over time.</desc>
  <defs>
    <linearGradient id="background" x1="0" y1="0" x2="1" y2="1">
      <stop offset="0" stop-color="#fafafa"/><stop offset="1" stop-color="#f4f4f5"/>
    </linearGradient>
    <linearGradient id="fill-stars" x1="0" y1="0" x2="0" y2="1"><stop offset="0" stop-color="#8b5cf6" stop-opacity=".24"/><stop offset="1" stop-color="#8b5cf6" stop-opacity="0"/></linearGradient><linearGradient id="fill-forks" x1="0" y1="0" x2="0" y2="1"><stop offset="0" stop-color="#06b6d4" stop-opacity=".24"/><stop offset="1" stop-color="#06b6d4" stop-opacity="0"/></linearGradient><linearGradient id="fill-downloads" x1="0" y1="0" x2="0" y2="1"><stop offset="0" stop-color="#10b981" stop-opacity=".24"/><stop offset="1" stop-color="#10b981" stop-opacity="0"/></linearGradient>
    <filter id="shadow" x="-10%" y="-10%" width="120%" height="130%"><feDropShadow dx="0" dy="8" stdDeviation="14" flood-color="#18181b" flood-opacity=".08"/></filter>
    <style>
      :root { color-scheme: light dark; }
      .bg { fill: url(#background); }
      .surface { fill: #ffffff; stroke: #e4e4e7; }
      .panel { fill: #ffffff; stroke: #e4e4e7; }
      .primary { fill: #18181b; }
      .secondary { fill: #71717a; }
      .grid { stroke: #e4e4e7; }
      text { font-family: Inter, ui-sans-serif, system-ui, -apple-system, BlinkMacSystemFont, "Segoe UI", sans-serif; }
      @media (prefers-color-scheme: dark) {
        .bg { fill: #09090b; }
        .surface, .panel { fill: #111113; stroke: #27272a; }
        .primary { fill: #fafafa; }
        .secondary { fill: #a1a1aa; }
        .grid { stroke: #27272a; }
      }
    </style>
  </defs>
  <rect class="bg" width="1000" height="957" rx="28"/>
  <g transform="translate(42 38)">
    <rect x="0" y="0" width="916" height="881" rx="22" class="surface" filter="url(#shadow)"/>
    <text x="30" y="45" class="primary" font-size="26" font-weight="750" letter-spacing="-.5">Project growth</text>
    <text x="30" y="70" class="secondary" font-size="14">SMNETSTUDIO/MCSP · Aug 21, 2026 – Oct 7, 2026</text>
    <g transform="translate(740 25)"><rect width="146" height="30" rx="15" fill="#8b5cf6" fill-opacity=".12"/><circle cx="17" cy="15" r="4" fill="#8b5cf6"/><text x="30" y="20" fill="#8b5cf6" font-size="11" font-weight="700" letter-spacing="1">LOCAL HISTORY</text></g>
    <g transform="translate(30 92)">
    <rect width="272" height="86" rx="16" class="panel"/>
    <rect x="16" y="17" width="6" height="52" rx="3" fill="#8b5cf6"/>
    <text x="38" y="34" class="secondary" font-size="12" font-weight="650" letter-spacing=".3">STARS</text>
    <text x="38" y="64" class="primary" font-size="27" font-weight="760" letter-spacing="-.5">58</text>
    <text x="246" y="63" text-anchor="end" fill="#8b5cf6" font-size="11" font-weight="650">+58 tracked</text>
  </g><g transform="translate(322 92)">
    <rect width="272" height="86" rx="16" class="panel"/>
    <rect x="16" y="17" width="6" height="52" rx="3" fill="#06b6d4"/>
    <text x="38" y="34" class="secondary" font-size="12" font-weight="650" letter-spacing=".3">FORKS</text>
    <text x="38" y="64" class="primary" font-size="27" font-weight="760" letter-spacing="-.5">14</text>
    <text x="246" y="63" text-anchor="end" fill="#06b6d4" font-size="11" font-weight="650">+14 tracked</text>
  </g><g transform="translate(614 92)">
    <rect width="272" height="86" rx="16" class="panel"/>
    <rect x="16" y="17" width="6" height="52" rx="3" fill="#10b981"/>
    <text x="38" y="34" class="secondary" font-size="12" font-weight="650" letter-spacing=".3">RELEASE DOWNLOADS</text>
    <text x="38" y="64" class="primary" font-size="27" font-weight="760" letter-spacing="-.5">0</text>
    <text x="246" y="63" text-anchor="end" fill="#10b981" font-size="11" font-weight="650">No change yet</text>
  </g>
    <g transform="translate(30 197)">
    <rect width="856" height="201" rx="16" class="panel"/>
    <circle cx="20" cy="27" r="5" fill="#8b5cf6"/>
    <text x="34" y="31" class="primary" font-size="14" font-weight="700">Stars</text>
    <text x="20" y="62" class="primary" font-size="20" font-weight="750">58</text>
    <text x="20" y="83" class="secondary" font-size="11">range 0–60</text>
    <line x1="220" x2="836" y1="20" y2="20" class="grid" stroke-width="1" stroke-dasharray="3 6"/><text x="210" y="24" text-anchor="end" class="secondary" font-size="9">60</text><line x1="220" x2="836" y1="95" y2="95" class="grid" stroke-width="1" stroke-dasharray="3 6"/><text x="210" y="99" text-anchor="end" class="secondary" font-size="9">30</text><line x1="220" x2="836" y1="170" y2="170" class="grid" stroke-width="1" stroke-dasharray="3 6"/><text x="210" y="174" text-anchor="end" class="secondary" font-size="9">0</text>
    <path d="M220 170 L233.1 145 L246.2 137.5 L259.3 120 L272.4 100 L285.5 80 L298.6 52.5 L311.7 32.5 L324.9 30 L338 25 L351.1 22.5 L364.2 22.5 L377.3 22.5 L390.4 25 L403.5 25 L416.6 25 L429.7 25 L442.8 25 L455.9 25 L469 25 L482.1 25 L495.2 25 L508.3 22.5 L521.4 22.5 L534.6 22.5 L547.7 20 L560.8 20 L573.9 20 L587 22.5 L600.1 22.5 L613.2 22.5 L626.3 22.5 L639.4 22.5 L652.5 22.5 L665.6 22.5 L678.7 22.5 L691.8 22.5 L704.9 25 L718 25 L731.1 25 L744.3 25 L757.4 25 L770.5 25 L783.6 25 L796.7 25 L809.8 25 L822.9 25 L836 25 L836 170 L220 170 Z" fill="url(#fill-stars)"/>
    <path d="M220 170 L233.1 145 L246.2 137.5 L259.3 120 L272.4 100 L285.5 80 L298.6 52.5 L311.7 32.5 L324.9 30 L338 25 L351.1 22.5 L364.2 22.5 L377.3 22.5 L390.4 25 L403.5 25 L416.6 25 L429.7 25 L442.8 25 L455.9 25 L469 25 L482.1 25 L495.2 25 L508.3 22.5 L521.4 22.5 L534.6 22.5 L547.7 20 L560.8 20 L573.9 20 L587 22.5 L600.1 22.5 L613.2 22.5 L626.3 22.5 L639.4 22.5 L652.5 22.5 L665.6 22.5 L678.7 22.5 L691.8 22.5 L704.9 25 L718 25 L731.1 25 L744.3 25 L757.4 25 L770.5 25 L783.6 25 L796.7 25 L809.8 25 L822.9 25 L836 25" fill="none" stroke="#8b5cf6" stroke-width="3" stroke-linecap="round" stroke-linejoin="round"/>
    <circle cx="836" cy="25" r="5" fill="#8b5cf6" stroke="#fff" stroke-width="2"/>
    <text x="220" y="194" text-anchor="start" class="secondary" font-size="9">Aug 21, 2026</text><text x="528" y="194" text-anchor="middle" class="secondary" font-size="9">Sep 13, 2026</text><text x="836" y="194" text-anchor="end" class="secondary" font-size="9">Oct 7, 2026</text>
  </g><g transform="translate(30 414)">
    <rect width="856" height="201" rx="16" class="panel"/>
    <circle cx="20" cy="27" r="5" fill="#06b6d4"/>
    <text x="34" y="31" class="primary" font-size="14" font-weight="700">Forks</text>
    <text x="20" y="62" class="primary" font-size="20" font-weight="750">14</text>
    <text x="20" y="83" class="secondary" font-size="11">range 0–15</text>
    <line x1="220" x2="836" y1="20" y2="20" class="grid" stroke-width="1" stroke-dasharray="3 6"/><text x="210" y="24" text-anchor="end" class="secondary" font-size="9">15</text><line x1="220" x2="836" y1="95" y2="95" class="grid" stroke-width="1" stroke-dasharray="3 6"/><text x="210" y="99" text-anchor="end" class="secondary" font-size="9">8</text><line x1="220" x2="836" y1="170" y2="170" class="grid" stroke-width="1" stroke-dasharray="3 6"/><text x="210" y="174" text-anchor="end" class="secondary" font-size="9">0</text>
    <path d="M220 170 L233.1 140 L246.2 120 L259.3 110 L272.4 100 L285.5 90 L298.6 60 L311.7 60 L324.9 60 L338 50 L351.1 40 L364.2 40 L377.3 40 L390.4 40 L403.5 30 L416.6 30 L429.7 30 L442.8 30 L455.9 30 L469 20 L482.1 20 L495.2 20 L508.3 20 L521.4 20 L534.6 20 L547.7 20 L560.8 20 L573.9 20 L587 30 L600.1 30 L613.2 30 L626.3 30 L639.4 30 L652.5 30 L665.6 30 L678.7 30 L691.8 30 L704.9 30 L718 30 L731.1 30 L744.3 30 L757.4 30 L770.5 30 L783.6 30 L796.7 30 L809.8 30 L822.9 30 L836 30 L836 170 L220 170 Z" fill="url(#fill-forks)"/>
    <path d="M220 170 L233.1 140 L246.2 120 L259.3 110 L272.4 100 L285.5 90 L298.6 60 L311.7 60 L324.9 60 L338 50 L351.1 40 L364.2 40 L377.3 40 L390.4 40 L403.5 30 L416.6 30 L429.7 30 L442.8 30 L455.9 30 L469 20 L482.1 20 L495.2 20 L508.3 20 L521.4 20 L534.6 20 L547.7 20 L560.8 20 L573.9 20 L587 30 L600.1 30 L613.2 30 L626.3 30 L639.4 30 L652.5 30 L665.6 30 L678.7 30 L691.8 30 L704.9 30 L718 30 L731.1 30 L744.3 30 L757.4 30 L770.5 30 L783.6 30 L796.7 30 L809.8 30 L822.9 30 L836 30" fill="none" stroke="#06b6d4" stroke-width="3" stroke-linecap="round" stroke-linejoin="round"/>
    <circle cx="836" cy="30" r="5" fill="#06b6d4" stroke="#fff" stroke-width="2"/>
    <text x="220" y="194" text-anchor="start" class="secondary" font-size="9">Aug 21, 2026</text><text x="528" y="194" text-anchor="middle" class="secondary" font-size="9">Sep 13, 2026</text><text x="836" y="194" text-anchor="end" class="secondary" font-size="9">Oct 7, 2026</text>
  </g><g transform="translate(30 631)">
    <rect width="856" height="201" rx="16" class="panel"/>
    <circle cx="20" cy="27" r="5" fill="#10b981"/>
    <text x="34" y="31" class="primary" font-size="14" font-weight="700">Release downloads</text>
    <text x="20" y="62" class="primary" font-size="20" font-weight="750">0</text>
    <text x="20" y="83" class="secondary" font-size="11">range 0–0</text>
    <line x1="220" x2="836" y1="20" y2="20" class="grid" stroke-width="1" stroke-dasharray="3 6"/><text x="210" y="24" text-anchor="end" class="secondary" font-size="9">1</text><line x1="220" x2="836" y1="95" y2="95" class="grid" stroke-width="1" stroke-dasharray="3 6"/><text x="210" y="99" text-anchor="end" class="secondary" font-size="9">1</text><line x1="220" x2="836" y1="170" y2="170" class="grid" stroke-width="1" stroke-dasharray="3 6"/><text x="210" y="174" text-anchor="end" class="secondary" font-size="9">0</text>
    <path d="M220 170 L233.1 170 L246.2 170 L259.3 170 L272.4 170 L285.5 170 L298.6 170 L311.7 170 L324.9 170 L338 170 L351.1 170 L364.2 170 L377.3 170 L390.4 170 L403.5 170 L416.6 170 L429.7 170 L442.8 170 L455.9 170 L469 170 L482.1 170 L495.2 170 L508.3 170 L521.4 170 L534.6 170 L547.7 170 L560.8 170 L573.9 170 L587 170 L600.1 170 L613.2 170 L626.3 170 L639.4 170 L652.5 170 L665.6 170 L678.7 170 L691.8 170 L704.9 170 L718 170 L731.1 170 L744.3 170 L757.4 170 L770.5 170 L783.6 170 L796.7 170 L809.8 170 L822.9 170 L836 170 L836 170 L220 170 Z" fill="url(#fill-downloads)"/>
    <path d="M220 170 L233.1 170 L246.2 170 L259.3 170 L272.4 170 L285.5 170 L298.6 170 L311.7 170 L324.9 170 L338 170 L351.1 170 L364.2 170 L377.3 170 L390.4 170 L403.5 170 L416.6 170 L429.7 170 L442.8 170 L455.9 170 L469 170 L482.1 170 L495.2 170 L508.3 170 L521.4 170 L534.6 170 L547.7 170 L560.8 170 L573.9 170 L587 170 L600.1 170 L613.2 170 L626.3 170 L639.4 170 L652.5 170 L665.6 170 L678.7 170 L691.8 170 L704.9 170 L718 170 L731.1 170 L744.3 170 L757.4 170 L770.5 170 L783.6 170 L796.7 170 L809.8 170 L822.9 170 L836 170" fill="none" stroke="#10b981" stroke-width="3" stroke-linecap="round" stroke-linejoin="round"/>
    <circle cx="836" cy="170" r="5" fill="#10b981" stroke="#fff" stroke-width="2"/>
    <text x="220" y="194" text-anchor="start" class="secondary" font-size="9">Aug 21, 2026</text><text x="528" y="194" text-anchor="middle" class="secondary" font-size="9">Sep 13, 2026</text><text x="836" y="194" text-anchor="end" class="secondary" font-size="9">Oct 7, 2026</text>
  </g>
    <text x="30" y="862" class="secondary" font-size="11">Updated Oct 7, 2026</text>
    <a href="https://github.com/MacRimi/repo-growth" target="_blank" aria-label="Open the Repo Growth project">
      <text x="886" y="862" fill="#8b5cf6" text-anchor="end" font-size="13" font-weight="700">Generated by Repo Growth ↗</text>
    </a>
  </g>
</svg>
