<?xml version="1.0" encoding="UTF-8"?>
<svg xmlns="http://www.w3.org/2000/svg" width="1000" height="957" viewBox="0 0 1000 957" role="img" aria-labelledby="title desc">
  <title id="title">Project growth for SMNETSTUDIO/MCSP</title>
  <desc id="desc">Repository growth dashboard showing stars, forks, release downloads over time.</desc>
  <defs>
    <linearGradient id="background" x1="0" y1="0" x2="1" y2="1">
      <stop offset="0" stop-color="#fafafa"/><stop offset="1" stop-color="#f4f4f5"/>
    </linearGradient>
    <linearGradient id="fill-stars" x1="0" y1="0" x2="0" y2="1"><stop offset="0" stop-color="#8b5cf6" stop-opacity=".24"/><stop offset="1" stop-color="#8b5cf6" stop-opacity="0"/></linearGradient><linearGradient id="fill-forks" x1="0" y1="0" x2="0" y2="1"><stop offset="0" stop-color="#06b6d4" stop-opacity=".24"/><stop offset="1" stop-color="#06b6d4" stop-opacity="0"/></linearGradient><linearGradient id="fill-downloads" x1="0" y1="0" x2="0" y2="1"><stop offset="0" stop-color="#10b981" stop-opacity=".24"/><stop offset="1" stop-color="#10b981" stop-opacity="0"/></linearGradient>
    <filter id="shadow" x="-10%" y="-10%" width="120%" height="130%"><feDropShadow dx="0" dy="8" stdDeviation="14" flood-color="#18181b" flood-opacity=".08"/></filter>
    <style>
      :root { color-scheme: light dark; }
      .bg { fill: url(#background); }
      .surface { fill: #ffffff; stroke: #e4e4e7; }
      .panel { fill: #ffffff; stroke: #e4e4e7; }
      .primary { fill: #18181b; }
      .secondary { fill: #71717a; }
      .grid { stroke: #e4e4e7; }
      text { font-family: Inter, ui-sans-serif, system-ui, -apple-system, BlinkMacSystemFont, "Segoe UI", sans-serif; }
      @media (prefers-color-scheme: dark) {
        .bg { fill: #09090b; }
        .surface, .panel { fill: #111113; stroke: #27272a; }
        .primary { fill: #fafafa; }
        .secondary { fill: #a1a1aa; }
        .grid { stroke: #27272a; }
      }
    </style>
  </defs>
  <rect class="bg" width="1000" height="957" rx="28"/>
  <g transform="translate(42 38)">
    <rect x="0" y="0" width="916" height="881" rx="22" class="surface" filter="url(#shadow)"/>
    <text x="30" y="45" class="primary" font-size="26" font-weight="750" letter-spacing="-.5">Project growth</text>
    <text x="30" y="70" class="secondary" font-size="14">SMNETSTUDIO/MCSP · Aug 21, 2026 – Sep 21, 2026</text>
    <g transform="translate(740 25)"><rect width="146" height="30" rx="15" fill="#8b5cf6" fill-opacity=".12"/><circle cx="17" cy="15" r="4" fill="#8b5cf6"/><text x="30" y="20" fill="#8b5cf6" font-size="11" font-weight="700" letter-spacing="1">LOCAL HISTORY</text></g>
    <g transform="translate(30 92)">
    <rect width="272" height="86" rx="16" class="panel"/>
    <rect x="16" y="17" width="6" height="52" rx="3" fill="#8b5cf6"/>
    <text x="38" y="34" class="secondary" font-size="12" font-weight="650" letter-spacing=".3">STARS</text>
    <text x="38" y="64" class="primary" font-size="27" font-weight="760" letter-spacing="-.5">59</text>
    <text x="246" y="63" text-anchor="end" fill="#8b5cf6" font-size="11" font-weight="650">+59 tracked</text>
  </g><g transform="translate(322 92)">
    <rect width="272" height="86" rx="16" class="panel"/>
    <rect x="16" y="17" width="6" height="52" rx="3" fill="#06b6d4"/>
    <text x="38" y="34" class="secondary" font-size="12" font-weight="650" letter-spacing=".3">FORKS</text>
    <text x="38" y="64" class="primary" font-size="27" font-weight="760" letter-spacing="-.5">14</text>
    <text x="246" y="63" text-anchor="end" fill="#06b6d4" font-size="11" font-weight="650">+14 tracked</text>
  </g><g transform="translate(614 92)">
    <rect width="272" height="86" rx="16" class="panel"/>
    <rect x="16" y="17" width="6" height="52" rx="3" fill="#10b981"/>
    <text x="38" y="34" class="secondary" font-size="12" font-weight="650" letter-spacing=".3">RELEASE DOWNLOADS</text>
    <text x="38" y="64" class="primary" font-size="27" font-weight="760" letter-spacing="-.5">0</text>
    <text x="246" y="63" text-anchor="end" fill="#10b981" font-size="11" font-weight="650">No change yet</text>
  </g>
    <g transform="translate(30 197)">
    <rect width="856" height="201" rx="16" class="panel"/>
    <circle cx="20" cy="27" r="5" fill="#8b5cf6"/>
    <text x="34" y="31" class="primary" font-size="14" font-weight="700">Stars</text>
    <text x="20" y="62" class="primary" font-size="20" font-weight="750">59</text>
    <text x="20" y="83" class="secondary" font-size="11">range 0–60</text>
    <line x1="220" x2="836" y1="20" y2="20" class="grid" stroke-width="1" stroke-dasharray="3 6"/><text x="210" y="24" text-anchor="end" class="secondary" font-size="9">60</text><line x1="220" x2="836" y1="95" y2="95" class="grid" stroke-width="1" stroke-dasharray="3 6"/><text x="210" y="99" text-anchor="end" class="secondary" font-size="9">30</text><line x1="220" x2="836" y1="170" y2="170" class="grid" stroke-width="1" stroke-dasharray="3 6"/><text x="210" y="174" text-anchor="end" class="secondary" font-size="9">0</text>
    <path d="M220 170 L239.9 145 L259.7 137.5 L279.6 120 L299.5 100 L319.4 80 L339.2 52.5 L359.1 32.5 L379 30 L398.8 25 L418.7 22.5 L438.6 22.5 L458.5 22.5 L478.3 25 L498.2 25 L518.1 25 L537.9 25 L557.8 25 L577.7 25 L597.5 25 L617.4 25 L637.3 25 L657.2 22.5 L677 22.5 L696.9 22.5 L716.8 20 L736.6 20 L756.5 20 L776.4 22.5 L796.3 22.5 L816.1 22.5 L836 22.5 L836 170 L220 170 Z" fill="url(#fill-stars)"/>
    <path d="M220 170 L239.9 145 L259.7 137.5 L279.6 120 L299.5 100 L319.4 80 L339.2 52.5 L359.1 32.5 L379 30 L398.8 25 L418.7 22.5 L438.6 22.5 L458.5 22.5 L478.3 25 L498.2 25 L518.1 25 L537.9 25 L557.8 25 L577.7 25 L597.5 25 L617.4 25 L637.3 25 L657.2 22.5 L677 22.5 L696.9 22.5 L716.8 20 L736.6 20 L756.5 20 L776.4 22.5 L796.3 22.5 L816.1 22.5 L836 22.5" fill="none" stroke="#8b5cf6" stroke-width="3" stroke-linecap="round" stroke-linejoin="round"/>
    <circle cx="836" cy="22.5" r="5" fill="#8b5cf6" stroke="#fff" stroke-width="2"/>
    <text x="220" y="194" text-anchor="start" class="secondary" font-size="9">Aug 21, 2026</text><text x="528" y="194" text-anchor="middle" class="secondary" font-size="9">Sep 5, 2026</text><text x="836" y="194" text-anchor="end" class="secondary" font-size="9">Sep 21, 2026</text>
  </g><g transform="translate(30 414)">
    <rect width="856" height="201" rx="16" class="panel"/>
    <circle cx="20" cy="27" r="5" fill="#06b6d4"/>
    <text x="34" y="31" class="primary" font-size="14" font-weight="700">Forks</text>
    <text x="20" y="62" class="primary" font-size="20" font-weight="750">14</text>
    <text x="20" y="83" class="secondary" font-size="11">range 0–15</text>
    <line x1="220" x2="836" y1="20" y2="20" class="grid" stroke-width="1" stroke-dasharray="3 6"/><text x="210" y="24" text-anchor="end" class="secondary" font-size="9">15</text><line x1="220" x2="836" y1="95" y2="95" class="grid" stroke-width="1" stroke-dasharray="3 6"/><text x="210" y="99" text-anchor="end" class="secondary" font-size="9">8</text><line x1="220" x2="836" y1="170" y2="170" class="grid" stroke-width="1" stroke-dasharray="3 6"/><text x="210" y="174" text-anchor="end" class="secondary" font-size="9">0</text>
    <path d="M220 170 L239.9 140 L259.7 120 L279.6 110 L299.5 100 L319.4 90 L339.2 60 L359.1 60 L379 60 L398.8 50 L418.7 40 L438.6 40 L458.5 40 L478.3 40 L498.2 30 L518.1 30 L537.9 30 L557.8 30 L577.7 30 L597.5 20 L617.4 20 L637.3 20 L657.2 20 L677 20 L696.9 20 L716.8 20 L736.6 20 L756.5 20 L776.4 30 L796.3 30 L816.1 30 L836 30 L836 170 L220 170 Z" fill="url(#fill-forks)"/>
    <path d="M220 170 L239.9 140 L259.7 120 L279.6 110 L299.5 100 L319.4 90 L339.2 60 L359.1 60 L379 60 L398.8 50 L418.7 40 L438.6 40 L458.5 40 L478.3 40 L498.2 30 L518.1 30 L537.9 30 L557.8 30 L577.7 30 L597.5 20 L617.4 20 L637.3 20 L657.2 20 L677 20 L696.9 20 L716.8 20 L736.6 20 L756.5 20 L776.4 30 L796.3 30 L816.1 30 L836 30" fill="none" stroke="#06b6d4" stroke-width="3" stroke-linecap="round" stroke-linejoin="round"/>
    <circle cx="836" cy="30" r="5" fill="#06b6d4" stroke="#fff" stroke-width="2"/>
    <text x="220" y="194" text-anchor="start" class="secondary" font-size="9">Aug 21, 2026</text><text x="528" y="194" text-anchor="middle" class="secondary" font-size="9">Sep 5, 2026</text><text x="836" y="194" text-anchor="end" class="secondary" font-size="9">Sep 21, 2026</text>
  </g><g transform="translate(30 631)">
    <rect width="856" height="201" rx="16" class="panel"/>
    <circle cx="20" cy="27" r="5" fill="#10b981"/>
    <text x="34" y="31" class="primary" font-size="14" font-weight="700">Release downloads</text>
    <text x="20" y="62" class="primary" font-size="20" font-weight="750">0</text>
    <text x="20" y="83" class="secondary" font-size="11">range 0–0</text>
    <line x1="220" x2="836" y1="20" y2="20" class="grid" stroke-width="1" stroke-dasharray="3 6"/><text x="210" y="24" text-anchor="end" class="secondary" font-size="9">1</text><line x1="220" x2="836" y1="95" y2="95" class="grid" stroke-width="1" stroke-dasharray="3 6"/><text x="210" y="99" text-anchor="end" class="secondary" font-size="9">1</text><line x1="220" x2="836" y1="170" y2="170" class="grid" stroke-width="1" stroke-dasharray="3 6"/><text x="210" y="174" text-anchor="end" class="secondary" font-size="9">0</text>
    <path d="M220 170 L239.9 170 L259.7 170 L279.6 170 L299.5 170 L319.4 170 L339.2 170 L359.1 170 L379 170 L398.8 170 L418.7 170 L438.6 170 L458.5 170 L478.3 170 L498.2 170 L518.1 170 L537.9 170 L557.8 170 L577.7 170 L597.5 170 L617.4 170 L637.3 170 L657.2 170 L677 170 L696.9 170 L716.8 170 L736.6 170 L756.5 170 L776.4 170 L796.3 170 L816.1 170 L836 170 L836 170 L220 170 Z" fill="url(#fill-downloads)"/>
    <path d="M220 170 L239.9 170 L259.7 170 L279.6 170 L299.5 170 L319.4 170 L339.2 170 L359.1 170 L379 170 L398.8 170 L418.7 170 L438.6 170 L458.5 170 L478.3 170 L498.2 170 L518.1 170 L537.9 170 L557.8 170 L577.7 170 L597.5 170 L617.4 170 L637.3 170 L657.2 170 L677 170 L696.9 170 L716.8 170 L736.6 170 L756.5 170 L776.4 170 L796.3 170 L816.1 170 L836 170" fill="none" stroke="#10b981" stroke-width="3" stroke-linecap="round" stroke-linejoin="round"/>
    <circle cx="836" cy="170" r="5" fill="#10b981" stroke="#fff" stroke-width="2"/>
    <text x="220" y="194" text-anchor="start" class="secondary" font-size="9">Aug 21, 2026</text><text x="528" y="194" text-anchor="middle" class="secondary" font-size="9">Sep 5, 2026</text><text x="836" y="194" text-anchor="end" class="secondary" font-size="9">Sep 21, 2026</text>
  </g>
    <text x="30" y="862" class="secondary" font-size="11">Updated Sep 21, 2026</text>
    <a href="https://github.com/MacRimi/repo-growth" target="_blank" aria-label="Open the Repo Growth project">
      <text x="886" y="862" fill="#8b5cf6" text-anchor="end" font-size="13" font-weight="700">Generated by Repo Growth ↗</text>
    </a>
  </g>
</svg>
